<?xml version="1.0" encoding="UTF-8"?>
<svg width="603px" height="572px" viewBox="0 0 603 572" version="1.1" xmlns="http://www.w3.org/2000/svg" xmlns:xlink="http://www.w3.org/1999/xlink">
    <!-- Generator: Sketch 46.2 (44496) - http://www.bohemiancoding.com/sketch -->
    <title>Logo</title>
    <desc>Created with Sketch.</desc>
    <defs></defs>
    <g id="Page-1" stroke="none" stroke-width="1" fill="none" fill-rule="evenodd">
        <g id="Lofty_1-01" transform="translate(-233.000000, -39.000000)" fill-rule="nonzero">
            <g id="Logo" transform="translate(233.000000, 39.000000)">
                <path d="M289,571 C276.186159,571.019131 269.092164,568.244723 257.46,562.87 L147.22,512.17 C143.66,512.34 140.1,512.43 136.59,512.43 C89.23,512.43 45.93,497.11 4.23,465.58 L0.23,462.58 L0.23,290.26 L9.46,297.26 L9.46,289.26 L25.09,299.9 C36.6141268,307.787801 48.9188467,314.469612 61.81,319.84 L51,148.4 C50.85,146.03 50.79,143.64 50.83,141.28 C50.87,138.92 51,136.59 51.22,134.28 C51.36,132.75 51.55,131.21 51.78,129.68 C52.2271016,126.650685 52.8312488,123.646638 53.59,120.68 C53.7766667,119.946667 53.9733333,119.216667 54.18,118.49 C55.0009762,115.595921 55.968898,112.745558 57.08,109.95 C57.9,107.88 58.82,105.82 59.8,103.81 C61.1,101.16 62.55,98.54 64.11,96.02 C64.5,95.39 64.9,94.77 65.3,94.15 C66.91,91.69 68.67,89.28 70.52,86.99 C71.44,85.84 72.41,84.71 73.38,83.62 C74.85,81.98 76.38,80.37 77.98,78.84 C78.51,78.33 79.04,77.84 79.59,77.33 C80.68,76.33 81.8,75.33 82.92,74.42 C83.49,73.94 84.07,73.48 84.64,73.02 C90.4671234,68.4093726 96.8504467,64.5491419 103.64,61.53 L105.71,60.65 C116.455785,56.2257497 127.969125,53.9658999 139.59,54 L262.13,54 L292.21,0.23 L324.31,54 L448.73,54 C452.669281,53.9987581 456.604399,54.2559772 460.51,54.77 C462.03,54.97 463.58,55.22 465.1,55.5 C470.347195,56.4793064 475.494894,57.9319083 480.48,59.84 C482.58,60.64 484.67,61.54 486.69,62.5 C490.056951,64.0965584 493.320069,65.9034641 496.46,67.91 C497.7,68.7 498.94,69.54 500.14,70.4 C500.74,70.8266667 501.336667,71.2633333 501.93,71.71 C503.1,72.59 504.27,73.51 505.41,74.46 C506.55,75.41 507.66,76.37 508.74,77.37 C513.616217,81.8724058 517.97637,86.903352 521.74,92.37 C533.136355,108.749511 538.617005,128.520764 537.28,148.43 L530.37,257.43 C551.00152,263.921376 570.549794,273.452845 588.37,285.71 L592.74,288.71 L592.74,298.59 C594.51,299.87 596.27,301.16 598,302.47 L602,305.47 L602,477.71 L586,465.59 C564.53,449.36 542.12,437.65 519.22,430.68 C518.313664,437.633299 516.584896,444.454383 514.07,451 C513.716667,451.92 513.346667,452.836667 512.96,453.75 C509.1138,462.826606 503.780627,471.198132 497.18,478.52 C495.85,479.99 494.47,481.43 493.07,482.78 C491.67,484.13 490.19,485.48 488.69,486.78 C487.19,488.08 485.62,489.3 484.02,490.48 C482.42,491.66 480.75,492.81 479.08,493.88 C478.24,494.42 477.386667,494.946667 476.52,495.46 C474.79,496.46 473,497.46 471.21,498.37 C470.31,498.823333 469.396667,499.266667 468.47,499.7 L331.84,562.83 C320.189426,568.228149 307.50039,571.01646 294.66,571 L289,571 Z" id="Shape" fill="#114B5F"></path>
                <path d="M464.28,490.58 L327.64,553.75 C306.709121,563.428741 282.588442,563.450668 261.64,553.81 L124.16,490.55 C97.8581357,478.447823 80.3139702,452.89378 78.47,424 L61,147.76 C59.6249093,126.050595 67.2874869,104.738802 82.1717484,88.8753875 C97.0560099,73.011973 117.83709,64.0089572 139.59,64 L448.73,64 C470.488125,64.0006738 491.277134,73.0000733 506.167984,88.864454 C521.058835,104.728835 528.725418,126.045392 527.35,147.76 L509.85,424.06 C508.018074,452.915803 490.526147,478.449333 464.28,490.58 Z" id="badge" fill="#E6EBE0"></path>
                <path d="M448.73,64 L139.59,64 C117.83709,64.0089572 97.0560099,73.011973 82.1717484,88.8753875 C67.2874869,104.738802 59.6249093,126.050595 61,147.76 L78.47,424 C80.299697,452.90849 97.8460651,478.481102 124.16,490.59 L261.65,553.85 C282.598442,563.490668 306.719121,563.468741 327.65,553.79 L464.29,490.62 C490.535273,478.484857 508.023534,452.947236 509.85,424.09 L527.36,147.8 C528.747049,126.076965 521.084287,104.748147 506.18995,88.8744934 C491.295614,73.0008397 470.497272,63.9972081 448.73,64 Z M501.52,166 L486,411.7 C484.375175,437.362307 468.821058,460.071624 445.48,470.86 L323.93,527 C305.319835,535.603217 283.874799,535.62149 265.25,527.05 L143,470.82 C119.601075,460.053966 103.99783,437.315396 102.37,411.61 L86.81,166 C85.5864385,146.69099 92.403514,127.735769 105.644794,113.62891 C118.886074,99.5220504 137.372262,91.5199398 156.72,91.52 L431.61,91.52 C450.957738,91.5199398 469.443926,99.5220504 482.685206,113.62891 C495.926486,127.735769 502.743561,146.69099 501.52,166 Z" id="inner-badge" fill="#E76F51"></path>
                <polygon id="mountain-background" fill="#114B5F" points="292.31 0.23 395.65 177.08 498.98 353.93 294.16 354.99 89.34 356.06 190.83 178.15"></polygon>
                <polygon id="mountian" fill="#E76F51" points="292.55 22.4 382.97 177.15 473.39 331.9 294.16 332.83 114.93 333.76 203.74 178.08"></polygon>
                <rect id="tree2-base" fill="#114B5F" x="415.75" y="320.17" width="24" height="74"></rect>
                <polygon id="tree2-1" fill="#114B5F" points="427.75 146.26 449.36 183.69 470.97 221.13 427.75 221.13 384.52 221.13 406.13 183.69"></polygon>
                <polygon id="tree2-2" fill="#114B5F" points="427.75 167.49 455 214.69 482.25 261.89 427.75 261.89 373.25 261.89 400.5 214.69"></polygon>
                <polygon id="tree2-3" fill="#114B5F" points="427.75 194.43 458.5 247.69 489.25 300.95 427.75 300.95 366.25 300.95 397 247.69"></polygon>
                <polygon id="tree2-4" fill="#114B5F" points="427.75 214.4 464 277.19 500.25 339.98 427.75 339.98 355.25 339.98 391.5 277.19"></polygon>
                <rect id="tree1-base" fill="#114B5F" x="148.58" y="320.17" width="24" height="74"></rect>
                <polygon id="tree1-1" fill="#114B5F" points="160.58 146.26 182.19 183.69 203.8 221.13 160.58 221.13 117.35 221.13 138.97 183.69"></polygon>
                <polygon id="tree1-2" fill="#114B5F" points="160.58 167.49 187.83 214.69 215.08 261.89 160.58 261.89 106.08 261.89 133.33 214.69"></polygon>
                <polygon id="tree1-3" fill="#114B5F" points="160.58 194.43 191.33 247.69 222.08 300.95 160.58 300.95 99.08 300.95 129.83 247.69"></polygon>
                <polygon id="tree1-4" fill="#114B5F" points="160.58 214.4 196.83 277.19 233.08 339.98 160.58 339.98 88.08 339.98 124.33 277.19"></polygon>
                <path d="M98.42,422.08 L494.42,408.58 L462.92,479.08 C462.92,479.08 308.55,553.92 302.48,551 C296.41,548.08 153.92,489.58 153.92,489.58 L93.92,438.58 L98.42,422.08 Z" id="chinFill" fill="#114B5F"></path>
                <path d="M493.53,352 C492.26,351.59 491.02,351.1 489.81,350.59 L485.93,411.74 C484.305175,437.402307 468.751058,460.111624 445.41,470.9 L323.92,527 C305.309835,535.603217 283.864799,535.62149 265.24,527.05 L143,470.82 C119.601075,460.053966 103.99783,437.315396 102.37,411.61 L97.91,341.15 C91.69,348.38 83.06,353.76 74.26,357.39 L78.46,424 C80.289697,452.90849 97.8360651,478.481102 124.15,490.59 L261.64,553.85 C282.588442,563.490668 306.709121,563.468741 327.64,553.79 L464.28,490.62 C490.525273,478.484857 508.013534,452.947236 509.84,424.09 L514.09,356.99 C507.010478,356.458522 500.065507,354.772948 493.53,352 Z" id="chin" fill="#E76F51"></path>
                <path d="M592.06,457.61 C544.49,421.61 492.38,406.28 433.13,415.29 C387.3,422.29 343.89,440.4 301.13,457.61 C258.37,474.82 215,493 169.2,499.93 C109.97,508.93 57.87,493.59 10.27,457.61 C10.27,408.523333 10.27,359.436667 10.27,310.35 C57.87,346.35 109.97,361.67 169.2,352.67 C215.03,345.67 258.45,327.56 301.2,310.35 C343.95,293.14 387.29,275 433.13,268 C492.38,259 544.49,274.36 592.06,310.32 C592.06,359.44 592.06,408.536667 592.06,457.61 Z" id="wave2" fill="#E6EBE0"></path>
                <path d="M582.82,436.48 C490.29,373.48 396.18,405.36 301.16,443.59 C206.14,481.82 111.96,513.59 19.5,450.7 C19.5,403.173333 19.5,355.646667 19.5,308.12 C112,371.05 206.18,339.21 301.16,301 C396.14,262.79 490.29,230.91 582.82,293.89 C582.82,341.423333 582.82,388.953333 582.82,436.48 Z" id="wave1" fill="#E9C46A"></path>
                <path d="M155.53,376.13 C157.91,375.91 159.1,376.97 159.1,379.35 L159.1,435 C159.1,437.26 160.41,438.44 162.67,438.16 C171.591567,437.146033 180.448932,435.630299 189.2,433.62 C191.58,433.1 192.77,434.01 192.77,436.39 L192.77,449.71 C192.941539,451.88742 191.367875,453.813726 189.2,454.08 C173.750722,457.540801 158.019854,459.595855 142.2,460.22 C141.234803,460.352374 140.262505,460.03214 139.564882,459.352104 C138.867258,458.672068 138.522309,457.708262 138.63,456.74 L138.63,380.62 C138.63,378.24 139.94,377.04 142.2,376.96 C147.54,376.79 150.2,376.62 155.53,376.13 Z" id="l" fill="#114B5F"></path>
                <path d="M258.67,405.92 C258.59,424.78 246.11,439.18 228.81,445.34 C212.05,451.34 198.56,442.72 198.95,425.05 L198.95,395.32 C199.01,376.98 212.35,363.32 228.81,357.8 C244.66,352.48 259.32,358.23 258.67,376.19 L258.67,405.92 Z M238.21,389.86 C238.21,380.7 237.62,375.39 228.81,378.25 C220,381.11 219.41,386.79 219.41,395.95 L219.41,413.08 C219.41,422.24 220.01,427.74 228.81,424.88 C237.61,422.02 238.21,416.15 238.21,406.99 L238.21,389.86 Z" id="o" fill="#114B5F"></path>
                <path d="M325.1,323.46 C327.48,322.513333 328.67,323.23 328.67,325.61 L328.67,338.93 C328.71657,341.20273 327.264721,343.236132 325.1,343.93 C315.1,347.93 305.1,351.95 295.1,355.99 C292.943393,356.694952 291.496548,358.721346 291.53,360.99 L291.53,364.8 C291.53,367.06 292.84,367.8 295.1,366.93 L314.75,359 C317.13,358.04 318.32,358.753333 318.32,361.14 L318.32,374.46 C318.356703,376.729668 316.908621,378.757793 314.75,379.46 L295.12,387.38 C292.963393,388.084952 291.516548,390.111346 291.55,392.38 L291.55,416.65 C291.589972,418.920685 290.140645,420.950556 287.98,421.65 C282.37,423.9 279.56,425.01 273.98,427.21 C271.72,428.09 270.41,427.29 270.41,425.03 L270.41,348.9 C270.349998,346.62314 271.807011,344.582505 273.98,343.9 C291,337.2 308,330.29 325.1,323.46 Z" id="f" fill="#114B5F"></path>
                <path d="M356.69,335 C356.69,332.62 355.5,331.86 353.12,332.74 C346.46,335.19 343.12,336.46 336.47,339.05 C334.21,339.93 332.9,339.13 332.9,336.87 L332.9,323.56 C332.839998,321.28314 334.297011,319.242505 336.47,318.56 C356.56,310.89 376.72,303.8 397.38,297.78 C399.76,297.12 400.95,298 400.95,300.38 L400.95,313.7 C401.04995,315.889065 399.530889,317.820868 397.38,318.24 C390.72,320.08 387.38,321.08 380.73,323.24 C378.570007,323.765748 377.077936,325.738458 377.16,327.96 L377.16,383.63 C377.228506,385.851592 375.744142,387.822428 373.59,388.37 C368.26,390.14 365.59,391.07 360.27,392.97 C358.01,393.78 356.7,392.97 356.7,390.69 L356.69,335 Z" id="t" fill="#114B5F"></path>
                <path d="M424.26,291.45 C426.26,291.06 427.59,291.66 428.26,293.45 C431.78,301.67 433.54,305.8 437.06,314.14 C437.54,315.14 438.25,315.04 438.73,313.9 C442.25,304.55 444.01,299.9 447.53,290.69 C448.047167,288.892111 449.660505,287.629674 451.53,287.56 C458.33,286.96 461.74,286.78 468.53,286.7 C471.27,286.7 472.46,288.35 471.27,290.85 C464.07,307.01 456.973333,323.21 449.98,339.45 C449.78715,339.907753 449.704926,340.404522 449.74,340.9 L449.74,367.43 C449.832397,368.436273 449.498806,369.435207 448.820297,370.184038 C448.141788,370.932869 447.180482,371.363036 446.17,371.37 C439.51,372.11 436.17,372.59 429.52,373.76 C427.26,374.16 425.95,373.1 425.95,370.84 L425.95,344.28 C425.989999,343.807015 425.907337,343.331709 425.71,342.9 C418.676667,328.586667 411.54,314.323333 404.3,300.11 C403.11,297.92 404.3,295.93 407.04,295.25 C414,293.55 417.41,292.78 424.26,291.45 Z" id="y" fill="#114B5F"></path>
                <path d="M598.09,302.38 C596.36,301.07 594.6,299.77 592.83,298.5 L592.83,288.62 L588.46,285.62 C570.639794,273.362845 551.09152,263.831376 530.46,257.34 L537.37,148.34 C538.707005,128.430764 533.226355,108.659511 521.83,92.28 C518.06637,86.813352 513.706217,81.7824058 508.83,77.28 C507.75,76.28 506.62,75.28 505.5,74.37 C504.38,73.46 503.2,72.5 502.02,71.62 C501.426667,71.1733333 500.83,70.7366667 500.23,70.31 C499.02,69.45 497.78,68.61 496.55,67.82 C493.410069,65.8134641 490.146951,64.0065584 486.78,62.41 C484.78,61.41 482.66,60.56 480.57,59.75 C475.584894,57.8419083 470.437195,56.3893064 465.19,55.41 C463.67,55.13 462.12,54.88 460.6,54.68 C456.694399,54.1659772 452.759281,53.9087581 448.82,53.91 L324.31,53.91 L292.21,0.14 L291.67,571 C292.67,571 293.6,571.05 294.58,571.05 C307.511881,571.060194 320.200986,568.265041 331.85,562.86 L468.49,499.69 C469.416667,499.263333 470.33,498.82 471.23,498.36 C473.02,497.45 474.81,496.48 476.54,495.45 C477.4,494.936667 478.253333,494.41 479.1,493.87 C480.77,492.8 482.43,491.66 484.04,490.47 C485.65,489.28 487.2,488.05 488.71,486.77 C490.22,485.49 491.71,484.15 493.09,482.77 C494.47,481.39 495.87,479.98 497.2,478.51 C503.807732,471.189613 509.147718,462.818001 513,453.74 C513.386667,452.833333 513.756667,451.916667 514.11,450.99 C516.630962,444.448438 518.366439,437.630733 519.28,430.68 C542.18,437.68 564.59,449.37 586.06,465.59 L602.06,477.71 L602.06,305.38 L598.09,302.38 Z" id="maskLayer" fill="#651951" opacity="0.19" style="mix-blend-mode: multiply;"></path>
            </g>
        </g>
    </g>
</svg>